# xmcd CD database file
#
# Track frame offsets:
#	187
#	4207
#	29742
#	48417
#	68537
#	90822
#	112572
#	132917
#	153205
#	174462
#	197240
#	214162
#	233492
#
# Disc length: 3389 seconds
#
# Revision: 2
# Processed by: cddbd v1.5.2PL0 Copyright (c) Steve Scherf et al.
# Submitted via: CDex 1.70beta2
#
DISCID=9a0d3b0d
DTITLE=Bobby Brown - Forever
DYEAR=1997
DGENRE=R&B
TTITLE0=Intro (Featuring Whitney Houston)
TTITLE1=It's Still My Thang
TTITLE2=Feelin' Inside
TTITLE3=She's All I Need
TTITLE4=My Place
TTITLE5=Been Around The World
TTITLE6=Give It Up
TTITLE7=Happy Days
TTITLE8=Forever
TTITLE9=Sunday Afternoon
TTITLE10=Heart And Soul
TTITLE11=Feelin' Inside (Marley Marl Remix)
TTITLE12=Feelin' Inside (Mr. Dalvin Remix)
EXTD=YEAR: 1997
EXTT0=
EXTT1=
EXTT2=
EXTT3=
EXTT4=
EXTT5=
EXTT6=
EXTT7=
EXTT8=
EXTT9=
EXTT10=
EXTT11=
EXTT12=
PLAYORDER=
